HIERARCHY
ROOT Hips
{
	OFFSET -0.0000 111.0000 0.0000
	CHANNELS 6 Xposition Yposition Zposition Xrotation Zrotation Yrotation
	JOINT RightUpperLeg
	{
		OFFSET -10.5000 -8.8000 0.0000
		CHANNELS 3 Xrotation Zrotation Yrotation
		JOINT RightLowerLeg
		{
			OFFSET -0.0000 -45.6000 0.0000
			CHANNELS 3 Xrotation Zrotation Yrotation
			JOINT RightFoot
			{
				OFFSET -0.0000 -46.7000 0.0000
				CHANNELS 3 Xrotation Zrotation Yrotation
				JOINT RightToe
				{
					OFFSET -0.0000 -8.0000 12.1000
					CHANNELS 3 Xrotation Zrotation Yrotation
					End Site
					{
						OFFSET -0.0000 0.0000 2.4200
					}
				}
			}
		}
	}
	JOINT LeftUpperLeg
	{
		OFFSET 10.5000 -8.8000 0.0000
		CHANNELS 3 Xrotation Zrotation Yrotation
		JOINT LeftLowerLeg
		{
			OFFSET -0.0000 -45.6000 0.0000
			CHANNELS 3 Xrotation Zrotation Yrotation
			JOINT LeftFoot
			{
				OFFSET -0.0000 -46.7000 0.0000
				CHANNELS 3 Xrotation Zrotation Yrotation
				JOINT LeftToe
				{
					OFFSET -0.0000 -8.0000 12.1000
					CHANNELS 3 Xrotation Zrotation Yrotation
					End Site
					{
						OFFSET -0.0000 0.0000 2.4200
					}
				}
			}
		}
	}
	JOINT Spine
	{
		OFFSET -0.0000 9.7000 0.0000
		CHANNELS 3 Xrotation Zrotation Yrotation
		JOINT Spine1
		{
			OFFSET -0.0000 11.2000 0.0000
			CHANNELS 3 Xrotation Zrotation Yrotation
			JOINT Spine2
			{
				OFFSET -0.0000 12.1000 0.0000
				CHANNELS 3 Xrotation Zrotation Yrotation
				JOINT Spine3
				{
					OFFSET -0.0000 11.7000 1.2000
					CHANNELS 3 Xrotation Zrotation Yrotation
					JOINT Neck
					{
						OFFSET -0.0000 12.0000 -1.2000
						CHANNELS 3 Xrotation Zrotation Yrotation
						JOINT Head
						{
							OFFSET -0.0000 10.0000 0.0000
							CHANNELS 3 Xrotation Zrotation Yrotation
							End Site
							{
								OFFSET -0.0000 20.0000 0.0000
							}
						}
					}
					JOINT RightShoulder
					{
						OFFSET -4.9000 4.0000 -1.2000
						CHANNELS 3 Xrotation Zrotation Yrotation
						JOINT RightUpperArm
						{
							OFFSET -15.6000 0.0000 0.0000
							CHANNELS 3 Xrotation Zrotation Yrotation
							JOINT RightLowerArm
							{
								OFFSET -25.9000 0.0000 0.0000
								CHANNELS 3 Xrotation Zrotation Yrotation
								JOINT RightHand
								{
									OFFSET -28.4000 0.0000 0.0000
									CHANNELS 3 Xrotation Zrotation Yrotation
									JOINT RightThumbFinger
									{
										OFFSET -3.4000 0.3000 4.2000
										CHANNELS 3 Xrotation Zrotation Yrotation
										JOINT RightThumbFinger1
										{
											OFFSET -3.5000 0.0000 3.5000
											CHANNELS 3 Xrotation Zrotation Yrotation
											JOINT RightThumbFinger2
											{
												OFFSET -2.5000 0.0000 2.4000
												CHANNELS 3 Xrotation Zrotation Yrotation
												End Site
												{
													OFFSET -2.1450 0.0000 2.0592
												}
											}
										}
									}
									JOINT RightIndexFinger
									{
										OFFSET -4.4000 0.7000 2.6000
										CHANNELS 3 Xrotation Zrotation Yrotation
										JOINT RightIndexFinger1
										{
											OFFSET -7.0000 -0.1000 1.4000
											CHANNELS 3 Xrotation Zrotation Yrotation
											JOINT RightIndexFinger2
											{
												OFFSET -5.0000 -0.2000 0.0000
												CHANNELS 3 Xrotation Zrotation Yrotation
												JOINT RightIndexFinger3
												{
													OFFSET -2.7000 -0.2000 0.0000
													CHANNELS 3 Xrotation Zrotation Yrotation
													End Site
													{
														OFFSET -2.3814 -0.1764 0.0000
													}
												}
											}
										}
									}
									JOINT RightMiddleFinger
									{
										OFFSET -4.6000 0.7000 1.0000
										CHANNELS 3 Xrotation Zrotation Yrotation
										JOINT RightMiddleFinger1
										{
											OFFSET -7.0000 -0.1000 0.4000
											CHANNELS 3 Xrotation Zrotation Yrotation
											JOINT RightMiddleFinger2
											{
												OFFSET -5.3000 -0.3000 0.0000
												CHANNELS 3 Xrotation Zrotation Yrotation
												JOINT RightMiddleFinger3
												{
													OFFSET -3.4000 -0.3000 0.0000
													CHANNELS 3 Xrotation Zrotation Yrotation
													End Site
													{
														OFFSET -2.9988 -0.2646 0.0000
													}
												}
											}
										}
									}
									JOINT RightRingFinger
									{
										OFFSET -4.5000 0.8000 -0.1000
										CHANNELS 3 Xrotation Zrotation Yrotation
										JOINT RightRingFinger1
										{
											OFFSET -6.3000 -0.1000 -0.7000
											CHANNELS 3 Xrotation Zrotation Yrotation
											JOINT RightRingFinger2
											{
												OFFSET -4.7000 -0.4000 0.0000
												CHANNELS 3 Xrotation Zrotation Yrotation
												JOINT RightRingFinger3
												{
													OFFSET -3.2000 -0.3000 0.0000
													CHANNELS 3 Xrotation Zrotation Yrotation
													End Site
													{
														OFFSET -2.8224 -0.2646 0.0000
													}
												}
											}
										}
									}
									JOINT RightPinkyFinger
									{
										OFFSET -4.3000 0.7000 -1.6000
										CHANNELS 3 Xrotation Zrotation Yrotation
										JOINT RightPinkyFinger1
										{
											OFFSET -5.6000 -0.1000 -1.5000
											CHANNELS 3 Xrotation Zrotation Yrotation
											JOINT RightPinkyFinger2
											{
												OFFSET -3.7000 -0.2000 0.0000
												CHANNELS 3 Xrotation Zrotation Yrotation
												JOINT RightPinkyFinger3
												{
													OFFSET -2.4000 -0.1000 0.0000
													CHANNELS 3 Xrotation Zrotation Yrotation
													End Site
													{
														OFFSET -2.1168 -0.0882 0.0000
													}
												}
											}
										}
									}
								}
							}
						}
					}
					JOINT LeftShoulder
					{
						OFFSET 4.9000 4.0000 -1.2000
						CHANNELS 3 Xrotation Zrotation Yrotation
						JOINT LeftUpperArm
						{
							OFFSET 15.6000 0.0000 0.0000
							CHANNELS 3 Xrotation Zrotation Yrotation
							JOINT LeftLowerArm
							{
								OFFSET 25.9000 0.0000 0.0000
								CHANNELS 3 Xrotation Zrotation Yrotation
								JOINT LeftHand
								{
									OFFSET 28.4000 0.0000 0.0000
									CHANNELS 3 Xrotation Zrotation Yrotation
									JOINT LeftThumbFinger
									{
										OFFSET 3.4000 0.3000 4.2000
										CHANNELS 3 Xrotation Zrotation Yrotation
										JOINT LeftThumbFinger1
										{
											OFFSET 3.5000 0.0000 3.5000
											CHANNELS 3 Xrotation Zrotation Yrotation
											JOINT LeftThumbFinger2
											{
												OFFSET 2.5000 0.0000 2.5000
												CHANNELS 3 Xrotation Zrotation Yrotation
												End Site
												{
													OFFSET 2.1450 0.0000 2.1450
												}
											}
										}
									}
									JOINT LeftIndexFinger
									{
										OFFSET 4.4000 0.7000 2.6000
										CHANNELS 3 Xrotation Zrotation Yrotation
										JOINT LeftIndexFinger1
										{
											OFFSET 7.0000 -0.1000 1.4000
											CHANNELS 3 Xrotation Zrotation Yrotation
											JOINT LeftIndexFinger2
											{
												OFFSET 5.0000 -0.2000 0.0000
												CHANNELS 3 Xrotation Zrotation Yrotation
												JOINT LeftIndexFinger3
												{
													OFFSET 2.7000 -0.2000 0.0000
													CHANNELS 3 Xrotation Zrotation Yrotation
													End Site
													{
														OFFSET 2.3814 -0.1764 0.0000
													}
												}
											}
										}
									}
									JOINT LeftMiddleFinger
									{
										OFFSET 4.6000 0.7000 1.0000
										CHANNELS 3 Xrotation Zrotation Yrotation
										JOINT LeftMiddleFinger1
										{
											OFFSET 7.0000 -0.1000 0.4000
											CHANNELS 3 Xrotation Zrotation Yrotation
											JOINT LeftMiddleFinger2
											{
												OFFSET 5.3000 -0.3000 0.0000
												CHANNELS 3 Xrotation Zrotation Yrotation
												JOINT LeftMiddleFinger3
												{
													OFFSET 3.4000 -0.3000 0.0000
													CHANNELS 3 Xrotation Zrotation Yrotation
													End Site
													{
														OFFSET 2.9988 -0.2646 0.0000
													}
												}
											}
										}
									}
									JOINT LeftRingFinger
									{
										OFFSET 4.5000 0.8000 -0.1000
										CHANNELS 3 Xrotation Zrotation Yrotation
										JOINT LeftRingFinger1
										{
											OFFSET 6.3000 -0.1000 -0.7000
											CHANNELS 3 Xrotation Zrotation Yrotation
											JOINT LeftRingFinger2
											{
												OFFSET 4.7000 -0.3000 0.0000
												CHANNELS 3 Xrotation Zrotation Yrotation
												JOINT LeftRingFinger3
												{
													OFFSET 3.2000 -0.2000 0.0000
													CHANNELS 3 Xrotation Zrotation Yrotation
													End Site
													{
														OFFSET 2.8224 -0.1764 0.0000
													}
												}
											}
										}
									}
									JOINT LeftPinkyFinger
									{
										OFFSET 4.3000 0.7000 -1.6000
										CHANNELS 3 Xrotation Zrotation Yrotation
										JOINT LeftPinkyFinger1
										{
											OFFSET 5.6000 -0.1000 -1.5000
											CHANNELS 3 Xrotation Zrotation Yrotation
											JOINT LeftPinkyFinger2
											{
												OFFSET 3.7000 -0.2000 0.1000
												CHANNELS 3 Xrotation Zrotation Yrotation
												JOINT LeftPinkyFinger3
												{
													OFFSET 2.4000 -0.1000 -0.1000
													CHANNELS 3 Xrotation Zrotation Yrotation
													End Site
													{
														OFFSET 2.1168 -0.0882 -0.0882
													}
												}
											}
										}
									}
								}
							}
						}
					}
				}
			}
		}
	}
}
MOTION
Frames: 5
Frame Time: 0.010417
-0.00 111.00 0.00 0.00 0.00 0.00 0.00 -0.00 0.00 0.00 -0.00 0.00 0.00 -0.00 0.00 0.00 -0.00 0.00 0.00 -0.00 0.00 0.00 -0.00 0.00 0.00 -0.00 0.00 0.00 -0.00 0.00 0.00 -0.00 0.00 0.00 -0.00 0.00 0.00 -0.00 0.00 0.00 -0.00 0.00 0.00 -0.00 0.00 0.00 -0.00 0.00 0.00 -0.00 0.00 0.00 -0.00 0.00 0.00 -0.00 0.00 0.00 -0.00 0.00 0.00 -0.00 0.00 0.00 -0.00 0.00 0.00 -0.00 0.00 0.00 -0.00 0.00 0.00 -0.00 0.00 0.00 -0.00 0.00 0.00 -0.00 0.00 0.00 -0.00 0.00 0.00 -0.00 0.00 0.00 -0.00 0.00 0.00 -0.00 0.00 0.00 -0.00 0.00 0.00 -0.00 0.00 0.00 -0.00 0.00 0.00 -0.00 0.00 0.00 -0.00 0.00 0.00 -0.00 0.00 0.00 -0.00 0.00 0.00 -0.00 0.00 0.00 -0.00 0.00 0.00 -0.00 0.00 0.00 -0.00 0.00 0.00 -0.00 0.00 0.00 -0.00 0.00 0.00 -0.00 0.00 0.00 -0.00 0.00 0.00 -0.00 0.00 0.00 -0.00 0.00 0.00 -0.00 0.00 0.00 -0.00 0.00 0.00 -0.00 0.00 0.00 -0.00 0.00 0.00 -0.00 0.00 0.00 -0.00 0.00 0.00 -0.00 0.00 0.00 -0.00 0.00 0.00 -0.00 0.00 0.00 -0.00 0.00 0.00 -0.00 0.00 0.00 -0.00 0.00 0.00 -0.00 0.00 0.00 -0.00 0.00 
-24.50 74.84 21.53 4.25 4.45 43.55 -76.04 -7.53 20.36 104.90 33.59 19.08 -2.80 -20.34 -10.47 -0.00 -0.00 0.00 -68.98 44.82 -17.20 102.25 -21.03 -33.60 -23.46 -2.74 -0.99 0.00 -0.00 0.00 2.53 -2.03 -2.85 3.00 -2.39 -2.97 3.25 -2.57 -3.22 3.25 -2.59 -3.22 -2.66 3.43 -4.54 -2.24 2.93 -3.86 10.89 3.23 -1.06 -34.51 51.84 7.95 16.39 -30.20 54.78 4.99 -11.80 -4.67 29.19 -0.01 -0.00 7.00 11.81 -21.18 -0.64 23.02 -25.76 -0.00 -0.00 0.00 -0.00 1.34 2.00 -0.51 14.57 -0.14 -0.26 7.50 -0.10 -0.00 -0.00 0.00 0.01 1.02 0.01 -0.01 12.22 -0.00 -0.01 6.23 -0.00 -0.00 -0.00 0.00 0.00 1.08 -2.00 0.45 12.78 0.11 0.22 6.52 0.08 -0.00 -0.00 0.00 0.00 7.73 -3.96 3.15 38.55 2.30 1.12 21.99 1.50 6.42 10.34 -17.35 13.61 -49.17 -72.66 25.98 21.78 -57.02 14.04 17.88 24.35 16.66 0.03 0.06 4.80 -17.94 9.60 5.73 -28.92 9.76 0.00 -0.00 0.00 -0.00 -0.63 -2.00 -0.31 -8.80 0.05 -0.15 -4.44 0.03 0.00 -0.00 0.00 -0.00 -0.60 0.00 0.00 -8.54 0.00 0.01 -4.30 -0.00 0.00 -0.00 0.00 -0.00 -0.29 2.00 0.18 -5.00 -0.02 0.08 -2.50 -0.01 0.00 -0.00 0.00 0.00 -0.23 4.01 0.29 -4.15 -0.03 0.15 -2.07 -0.02 
-24.50 74.84 21.53 4.25 4.45 43.55 -76.04 -7.53 20.36 104.90 33.59 19.08 -2.80 -20.34 -10.47 -0.00 -0.00 0.00 -68.98 44.82 -17.20 102.25 -21.03 -33.60 -23.46 -2.74 -0.99 0.00 -0.00 0.00 2.53 -2.03 -2.85 3.00 -2.39 -2.97 3.25 -2.57 -3.22 3.25 -2.59 -3.22 -2.66 3.43 -4.55 -2.24 2.92 -3.88 10.89 3.23 -1.06 -34.52 51.84 7.93 16.38 -30.16 54.83 5.03 -11.82 -4.70 29.20 0.00 -0.00 6.99 11.80 -21.19 -0.64 23.03 -25.76 -0.00 -0.00 -0.00 0.01 1.34 2.00 -0.53 14.56 -0.15 -0.25 7.49 -0.10 -0.00 -0.00 -0.00 -0.00 1.02 -0.00 0.01 12.22 -0.00 -0.01 6.23 0.00 -0.00 -0.00 -0.00 0.00 1.10 -2.01 0.46 12.77 0.12 0.21 6.53 0.08 -0.00 -0.00 -0.00 0.01 7.73 -3.97 3.16 38.55 2.32 1.11 21.98 1.50 6.42 10.34 -17.35 13.61 -49.17 -72.66 25.98 21.78 -57.02 14.04 17.88 24.35 16.66 0.03 0.06 4.80 -17.94 9.60 5.73 -28.92 9.76 0.00 -0.00 0.00 -0.00 -0.63 -2.00 -0.31 -8.80 0.05 -0.15 -4.44 0.03 0.00 -0.00 0.00 -0.00 -0.60 0.00 0.00 -8.54 0.00 0.01 -4.30 -0.00 0.00 -0.00 0.00 -0.00 -0.29 2.00 0.18 -5.00 -0.02 0.08 -2.50 -0.01 0.00 -0.00 0.00 0.00 -0.23 4.01 0.29 -4.15 -0.03 0.15 -2.07 -0.02 
-24.50 74.84 21.53 4.25 4.45 43.55 -76.04 -7.53 20.36 104.90 33.59 19.08 -2.80 -20.34 -10.47 -0.00 -0.00 0.00 -68.98 44.82 -17.20 102.25 -21.03 -33.60 -23.46 -2.74 -0.99 0.00 -0.00 0.00 2.53 -2.03 -2.85 3.00 -2.39 -2.97 3.25 -2.57 -3.22 3.25 -2.59 -3.22 -2.65 3.42 -4.56 -2.24 2.92 -3.89 10.89 3.23 -1.06 -34.54 51.81 7.90 16.37 -30.09 54.90 5.05 -11.91 -4.71 29.18 -0.00 -0.00 7.00 11.80 -21.17 -0.63 23.00 -25.76 -0.00 -0.00 -0.00 0.01 1.31 2.00 -0.52 14.38 -0.14 -0.25 7.40 -0.10 -0.00 -0.00 -0.00 -0.00 1.02 -0.01 0.01 12.23 0.00 -0.00 6.24 0.01 -0.00 -0.00 -0.00 0.00 1.10 -2.00 0.46 12.80 0.11 0.21 6.55 0.09 -0.00 -0.00 -0.00 0.00 7.76 -3.97 3.17 38.61 2.32 1.11 22.03 1.51 6.43 10.35 -17.35 13.60 -49.17 -72.66 25.98 21.78 -57.02 14.04 17.88 24.35 16.66 0.03 0.06 4.80 -17.94 9.60 5.73 -28.92 9.76 0.00 -0.00 0.00 -0.00 -0.63 -2.00 -0.31 -8.80 0.05 -0.15 -4.44 0.03 0.00 -0.00 0.00 -0.00 -0.60 0.00 0.00 -8.54 0.00 0.01 -4.30 -0.00 0.00 -0.00 0.00 -0.00 -0.29 2.00 0.18 -5.00 -0.02 0.08 -2.50 -0.01 0.00 -0.00 0.00 0.00 -0.23 4.01 0.29 -4.15 -0.03 0.15 -2.07 -0.02 
-24.50 74.85 21.53 4.25 4.45 43.55 -76.04 -7.53 20.36 104.90 33.59 19.08 -2.80 -20.34 -10.47 -0.00 -0.00 0.00 -68.98 44.82 -17.20 102.25 -21.03 -33.60 -23.46 -2.74 -0.99 0.00 -0.00 0.00 2.53 -2.03 -2.85 3.00 -2.39 -2.97 3.25 -2.57 -3.22 3.25 -2.59 -3.22 -2.65 3.42 -4.58 -2.24 2.91 -3.89 10.89 3.22 -1.07 -34.56 51.82 7.88 16.36 -30.06 54.92 5.08 -11.94 -4.71 29.20 0.00 -0.00 7.01 11.81 -21.19 -0.65 23.03 -25.75 0.00 -0.00 0.00 0.00 1.27 2.00 -0.50 14.04 -0.13 -0.25 7.22 -0.10 0.00 -0.00 0.00 0.01 1.03 0.00 -0.00 12.28 0.01 -0.01 6.27 -0.01 0.00 -0.00 0.00 0.00 1.10 -2.00 0.46 12.85 0.11 0.22 6.56 0.08 0.00 -0.00 0.00 0.00 7.82 -3.97 3.17 38.72 2.34 1.12 22.12 1.52 6.43 10.35 -17.35 13.60 -49.17 -72.66 25.98 21.78 -57.02 14.04 17.88 24.35 16.66 0.03 0.06 4.80 -17.94 9.60 5.73 -28.92 9.76 0.00 -0.00 0.00 -0.00 -0.63 -2.00 -0.31 -8.80 0.05 -0.15 -4.44 0.03 0.00 -0.00 0.00 -0.00 -0.60 0.00 0.00 -8.54 0.00 0.01 -4.30 -0.00 0.00 -0.00 0.00 -0.00 -0.29 2.00 0.18 -5.00 -0.02 0.08 -2.50 -0.01 0.00 -0.00 0.00 0.00 -0.23 4.01 0.29 -4.15 -0.03 0.15 -2.07 -0.02 
